<svg xmlns="http://www.w3.org/2000/svg" xmlns:xlink="http://www.w3.org/1999/xlink" style="margin:auto;background:rgba(0, 0, 0, 0);display:block;z-index:1;position:relative" width="1280" height="881" preserveAspectRatio="xMidYMid" viewBox="0 0 1280 881">
  <g transform="translate(640,440.5) scale(1,1) translate(-640,-440.5)"><defs>
    <path id="path-66az4okox2x-1" d="M-35 -35L35 -35L35 35L-35 35Z" fill="none" stroke="inherit" stroke-width="4" transform="scale(0.15)"></path>
    <path id="path-66az4okox2x-2" d="M0 -37A37 37 0 0 1 0 37A37 37 0 0 1 0 -37" fill="none" stroke="inherit" stroke-width="4" transform="scale(0.15)"></path>
    <path id="path-66az4okox2x-3" d="M0 -34.641L40 34.641L-40 34.641Z" fill="none" stroke="inherit" stroke-width="4" transform="scale(0.15)"></path>
  </defs><path id="path0" d="M 62.40937786825211 812.7507265037134
c 0 35.15068801313275 -8.60070025853248 10.096474216538132 -18.69717447507061 10.096474216538132
S 25.015028918110886 847.9014145168461 25.015028918110886 812.7507265037134
s 8.60070025853248 -10.096474216538132 18.69717447507061 -10.096474216538132
S 62.40937786825211 777.6000384905807 62.40937786825211 812.7507265037134
z" fill="none" stroke="none"></path>
    <use xlink:href="#path-66az4okox2x-2" x="0" y="0" stroke="#4B5563">
      <animateMotion begin="-1.6621923843292175s" dur="28s" keyPoints="1;0" keyTimes="0;1" repeatCount="indefinite" calcMode="linear">
        <mpath xlink:href="#path0"></mpath>
      </animateMotion>
    </use><path id="path1" d="M 151.70216947559885 639.1017096685823
c 0 59.35667001675185 -14.523440536013748 17.049256281407448 -31.572696817421196 17.049256281407448
S 88.55677584075647 698.4583796853342 88.55677584075647 639.1017096685823
s 14.523440536013748 -17.049256281407448 31.572696817421196 -17.049256281407448
S 151.70216947559885 579.7450396518304 151.70216947559885 639.1017096685823
z" fill="none" stroke="none"></path>
    <use xlink:href="#path-66az4okox2x-2" x="0" y="0" stroke="#4B5563">
      <animateMotion begin="-1.3440230019788557s" dur="28s" keyPoints="1;0" keyTimes="0;1" repeatCount="indefinite" calcMode="linear">
        <mpath xlink:href="#path1"></mpath>
      </animateMotion>
    </use><path id="path2" d="M 238.99238996478095 110.3072574150024
c 0 41.51772192274176 -10.158591534287876 11.925303105468378 -22.083894639756252 11.925303105468378
S 194.82460068526842 151.82497933774414 194.82460068526842 110.3072574150024
s 10.158591534287876 -11.925303105468378 22.083894639756252 -11.925303105468378
S 238.99238996478095 68.78953549226064 238.99238996478095 110.3072574150024
z" fill="none" stroke="none"></path>
    <use xlink:href="#path-66az4okox2x-3" x="0" y="0" stroke="#4B5563">
      <animateMotion begin="-0.15868711648621137s" dur="20s" keyPoints="1;0" keyTimes="0;1" repeatCount="indefinite" calcMode="linear">
        <mpath xlink:href="#path2"></mpath>
      </animateMotion>
    </use><path id="path3" d="M 291.93280359908255 573.3421133096906
c 0 45.21053278845108 -11.062151639727393 12.986004098810419 -24.04815573853781 12.986004098810419
S 243.83649212200694 618.5526460981417 243.83649212200694 573.3421133096906
s 11.062151639727393 -12.986004098810419 24.04815573853781 -12.986004098810419
S 291.93280359908255 528.1315805212395 291.93280359908255 573.3421133096906
z" fill="none" stroke="none"></path>
    <use xlink:href="#path-66az4okox2x-1" x="0" y="0" stroke="#4B5563">
      <animateMotion begin="-0.9332554287404615s" dur="28s" keyPoints="1;0" keyTimes="0;1" repeatCount="indefinite" calcMode="linear">
        <mpath xlink:href="#path3"></mpath>
      </animateMotion>
    </use><path id="path4" d="M 377.13934561546205 350.7396558770483
c 0 22.6370693818227 -5.53885740193534 6.502136950098009 -12.04099435203335 6.502136950098009
S 353.05735691139535 373.376725258871 353.05735691139535 350.7396558770483
s 5.53885740193534 -6.502136950098009 12.04099435203335 -6.502136950098009
S 377.13934561546205 328.1025864952256 377.13934561546205 350.7396558770483
z" fill="none" stroke="none"></path>
    <use xlink:href="#path-66az4okox2x-2" x="0" y="0" stroke="#4B5563">
      <animateMotion begin="-0.21555240347200133s" dur="26s" keyPoints="0;1" keyTimes="0;1" repeatCount="indefinite" calcMode="linear">
        <mpath xlink:href="#path4"></mpath>
      </animateMotion>
    </use><path id="path5" d="M 395.69195055585203 617.5809754471385
c 0 50.81420199585753 -12.433262190475777 14.59556865838461 -27.028830848860387 14.59556865838461
S 341.6342888581313 668.395177442996 341.6342888581313 617.5809754471385
s 12.433262190475777 -14.59556865838461 27.028830848860387 -14.59556865838461
S 395.69195055585203 566.766773451281 395.69195055585203 617.5809754471385
z" fill="none" stroke="none"></path>
    <use xlink:href="#path-66az4okox2x-3" x="0" y="0" stroke="#4B5563">
      <animateMotion begin="-2.1888332302546685s" dur="28s" keyPoints="0;1" keyTimes="0;1" repeatCount="indefinite" calcMode="linear">
        <mpath xlink:href="#path5"></mpath>
      </animateMotion>
    </use><path id="path6" d="M 468.40955430980284 675.2121515026467
c 0 36.28684118077018 -8.878695182528872 10.422816083838244 -19.30151126636712 10.422816083838244
S 429.8065317770686 711.4989926834169 429.8065317770686 675.2121515026467
s 8.878695182528872 -10.422816083838244 19.30151126636712 -10.422816083838244
S 468.40955430980284 638.9253103218766 468.40955430980284 675.2121515026467
z" fill="none" stroke="none"></path>
    <use xlink:href="#path-66az4okox2x-2" x="0" y="0" stroke="#4B5563">
      <animateMotion begin="-3.9613844044513122s" dur="26s" keyPoints="1;0" keyTimes="0;1" repeatCount="indefinite" calcMode="linear">
        <mpath xlink:href="#path6"></mpath>
      </animateMotion>
    </use><path id="path7" d="M 555.3928557285386 322.49806875202967
c 0 26.747502336872344 -6.544601635617701 7.68279322442078 -14.22739486003848 7.68279322442078
S 526.9380660084618 349.245571088902 526.9380660084618 322.49806875202967
s 6.544601635617701 -7.68279322442078 14.22739486003848 -7.68279322442078
S 555.3928557285386 295.7505664151573 555.3928557285386 322.49806875202967
z" fill="none" stroke="none"></path>
    <use xlink:href="#path-66az4okox2x-3" x="0" y="0" stroke="#4B5563">
      <animateMotion begin="-1.40583274133541s" dur="26s" keyPoints="0;1" keyTimes="0;1" repeatCount="indefinite" calcMode="linear">
        <mpath xlink:href="#path7"></mpath>
      </animateMotion>
    </use><path id="path8" d="M 652.8456715713994 424.2420120121513
c 0 28.661010108490483 -7.012800345694479 8.232417797119608 -15.245218142814085 8.232417797119608
S 622.3552352857712 452.90302212064177 622.3552352857712 424.2420120121513
s 7.012800345694479 -8.232417797119608 15.245218142814085 -8.232417797119608
S 652.8456715713994 395.5810019036608 652.8456715713994 424.2420120121513
z" fill="none" stroke="none"></path>
    <use xlink:href="#path-66az4okox2x-3" x="0" y="0" stroke="#4B5563">
      <animateMotion begin="-3.987067278666431s" dur="26s" keyPoints="0;1" keyTimes="0;1" repeatCount="indefinite" calcMode="linear">
        <mpath xlink:href="#path8"></mpath>
      </animateMotion>
    </use><path id="path9" d="M 704.1753686019158 389.4917296608493
c 0 34.34901935971602 -8.40454729014328 9.866207688429068 -18.27075497857235 9.866207688429068
S 667.6338586447712 423.8407490205653 667.6338586447712 389.4917296608493
s 8.40454729014328 -9.866207688429068 18.27075497857235 -9.866207688429068
S 704.1753686019158 355.14271030113326 704.1753686019158 389.4917296608493
z" fill="none" stroke="none"></path>
    <use xlink:href="#path-66az4okox2x-3" x="0" y="0" stroke="#4B5563">
      <animateMotion begin="-4.2024368902156315s" dur="28s" keyPoints="1;0" keyTimes="0;1" repeatCount="indefinite" calcMode="linear">
        <mpath xlink:href="#path9"></mpath>
      </animateMotion>
    </use><path id="path10" d="M 772.7616116724159 810.690762693404
c 0 61.83332165128325 -15.129429765739516 17.76063494238987 -32.89006470812939 17.76063494238987
S 706.981482256157 872.5240843446873 706.981482256157 810.690762693404
s 15.129429765739516 -17.76063494238987 32.89006470812939 -17.76063494238987
S 772.7616116724159 748.8574410421209 772.7616116724159 810.690762693404
z" fill="none" stroke="none"></path>
    <use xlink:href="#path-66az4okox2x-3" x="0" y="0" stroke="#4B5563">
      <animateMotion begin="-2.558359302586796s" dur="21s" keyPoints="1;0" keyTimes="0;1" repeatCount="indefinite" calcMode="linear">
        <mpath xlink:href="#path10"></mpath>
      </animateMotion>
    </use><path id="path11" d="M 830.0111789139854 311.31743679690976
c 0 44.53800236087513 -10.897596322341787 12.792830465357753 -23.69042678769954 12.792830465357753
S 782.6303253385864 355.8554391577849 782.6303253385864 311.31743679690976
s 10.897596322341787 -12.792830465357753 23.69042678769954 -12.792830465357753
S 830.0111789139854 266.77943443603465 830.0111789139854 311.31743679690976
z" fill="none" stroke="none"></path>
    <use xlink:href="#path-66az4okox2x-2" x="0" y="0" stroke="#4B5563">
      <animateMotion begin="-3.0804861032608413s" dur="20s" keyPoints="0;1" keyTimes="0;1" repeatCount="indefinite" calcMode="linear">
        <mpath xlink:href="#path11"></mpath>
      </animateMotion>
    </use><path id="path12" d="M 872.709417238082 714.3654266072879
c 0 21.71522412269238 -5.313299519382178 6.237351609709513 -11.55065112909169 6.237351609709513
S 849.6081149798987 736.0806507299802 849.6081149798987 714.3654266072879
s 5.313299519382178 -6.237351609709513 11.55065112909169 -6.237351609709513
S 872.709417238082 692.6502024845955 872.709417238082 714.3654266072879
z" fill="none" stroke="none"></path>
    <use xlink:href="#path-66az4okox2x-1" x="0" y="0" stroke="#4B5563">
      <animateMotion begin="-1.084593005108857s" dur="21s" keyPoints="0;1" keyTimes="0;1" repeatCount="indefinite" calcMode="linear">
        <mpath xlink:href="#path12"></mpath>
      </animateMotion>
    </use><path id="path13" d="M 954.3878025816683 437.55555418965855
c 0 34.60333408643165 -8.466773233914127 9.939255535464412 -18.406028769378537 9.939255535464412
S 917.5757450429113 472.1588882760902 917.5757450429113 437.55555418965855
s 8.466773233914127 -9.939255535464412 18.406028769378537 -9.939255535464412
S 954.3878025816683 402.9522201032269 954.3878025816683 437.55555418965855
z" fill="none" stroke="none"></path>
    <use xlink:href="#path-66az4okox2x-1" x="0" y="0" stroke="#4B5563">
      <animateMotion begin="-4.261466997682754s" dur="20s" keyPoints="1;0" keyTimes="0;1" repeatCount="indefinite" calcMode="linear">
        <mpath xlink:href="#path13"></mpath>
      </animateMotion>
    </use><path id="path14" d="M 1037.8009993727699 628.7646811269932
c 0 60.79344094087677 -14.874990868512398 17.46194580216673 -32.33693667067913 17.46194580216673
S 973.1271260314115 689.5581220678699 973.1271260314115 628.7646811269932
s 14.874990868512398 -17.46194580216673 32.33693667067913 -17.46194580216673
S 1037.8009993727699 567.9712401861165 1037.8009993727699 628.7646811269932
z" fill="none" stroke="none"></path>
    <use xlink:href="#path-66az4okox2x-3" x="0" y="0" stroke="#4B5563">
      <animateMotion begin="-4.08783944075768s" dur="25s" keyPoints="1;0" keyTimes="0;1" repeatCount="indefinite" calcMode="linear">
        <mpath xlink:href="#path14"></mpath>
      </animateMotion>
    </use><path id="path15" d="M 1062.6915995105996 258.9078451362368
c 0 18.985470347259042 -4.645381042414446 5.453273397616959 -10.098654440031405 5.453273397616959
S 1042.4942906305369 277.8933154834958 1042.4942906305369 258.9078451362368
s 4.645381042414446 -5.453273397616959 10.098654440031405 -5.453273397616959
S 1062.6915995105996 239.92237478897775 1062.6915995105996 258.9078451362368
z" fill="none" stroke="none"></path>
    <use xlink:href="#path-66az4okox2x-1" x="0" y="0" stroke="#4B5563">
      <animateMotion begin="-0.8771906915092675s" dur="27s" keyPoints="1;0" keyTimes="0;1" repeatCount="indefinite" calcMode="linear">
        <mpath xlink:href="#path15"></mpath>
      </animateMotion>
    </use><path id="path16" d="M 1169.3270173959443 289.54986046594354
c 0 50.6001789555566 -12.380894850827678 14.53409395531945 -26.91498880614713 14.53409395531945
S 1115.4970397836498 340.15003942150014 1115.4970397836498 289.54986046594354
s 12.380894850827678 -14.53409395531945 26.91498880614713 -14.53409395531945
S 1169.3270173959443 238.94968151038694 1169.3270173959443 289.54986046594354
z" fill="none" stroke="none"></path>
    <use xlink:href="#path-66az4okox2x-2" x="0" y="0" stroke="#4B5563">
      <animateMotion begin="-1.8985853319233237s" dur="26s" keyPoints="1;0" keyTimes="0;1" repeatCount="indefinite" calcMode="linear">
        <mpath xlink:href="#path16"></mpath>
      </animateMotion>
    </use><path id="path17" d="M 1261.8806931522631 257.8968460442334
c 0 20.516465068735897 -5.019986133839634 5.893027200594354 -10.913013334433987 5.893027200594354
S 1240.054666483395 278.4133111129693 1240.054666483395 257.8968460442334
s 5.019986133839634 -5.893027200594354 10.913013334433987 -5.893027200594354
S 1261.8806931522631 237.38038097549753 1261.8806931522631 257.8968460442334
z" fill="none" stroke="none"></path>
    <use xlink:href="#path-66az4okox2x-2" x="0" y="0" stroke="#4B5563">
      <animateMotion begin="-0.8115485555207347s" dur="20s" keyPoints="0;1" keyTimes="0;1" repeatCount="indefinite" calcMode="linear">
        <mpath xlink:href="#path17"></mpath>
      </animateMotion>
    </use></g>
</svg>
