{
  "asset": {
    "generator": "Khronos glTF Blender I/O v1.7.33",
    "version": "2.0"
  },
  "scene": 0,
  "scenes": [
    {
      "name": "Scene",
      "nodes": [0]
    }
  ],
  "nodes": [
    {
      "mesh": 0,
      "name": "Sphere",
      "rotation": [-0.07912703603506088, -0.07912703603506088, -0.7026655673980713, 0.7026655673980713]
    }
  ],
  "meshes": [
    {
      "name": "Sphere.001",
      "primitives": [
        {
          "attributes": {
            "POSITION": 0,
            "NORMAL": 1,
            "TEXCOORD_0": 2
          },
          "indices": 3
        }
      ]
    }
  ],
  "accessors": [
    {
      "bufferView": 0,
      "componentType": 5126,
      "count": 520,
      "max": [0.9445323944091797, 2.393916130065918, 1.24210786819458],
      "min": [-2.315953016281128, -2.3852267265319824, -1.386082410812378],
      "type": "VEC3"
    },
    {
      "bufferView": 1,
      "componentType": 5126,
      "count": 520,
      "type": "VEC3"
    },
    {
      "bufferView": 2,
      "componentType": 5126,
      "count": 520,
      "type": "VEC2"
    },
    {
      "bufferView": 3,
      "componentType": 5123,
      "count": 636,
      "type": "SCALAR"
    }
  ],
  "bufferViews": [
    {
      "buffer": 0,
      "byteLength": 6240,
      "byteOffset": 0
    },
    {
      "buffer": 0,
      "byteLength": 6240,
      "byteOffset": 6240
    },
    {
      "buffer": 0,
      "byteLength": 4160,
      "byteOffset": 12480
    },
    {
      "buffer": 0,
      "byteLength": 1272,
      "byteOffset": 16640
    }
  ],
  "buffers": [
    {
      "byteLength": 17912,
      "uri": "data:application/octet-stream;base64,"
    }
  ]
}
